<svg xmlns="http://www.w3.org/2000/svg" width="328" height="330" fill="none" viewBox="0 0 328 330">
  <g class="Logo-color">
    <g class="Star-color" filter="url(#a)">
      <path fill="#831515" d="M128.645 59.33A10 10 0 0 1 133.007 48l36.362-22.348a10 10 0 0 1 10.318-.093l37.925 22.376a10 10 0 0 1 4.437 11.677l-24.772 76.945c-2.458 7.634 4.619 14.91 12.318 12.664l81.926-23.895a10 10 0 0 1 11.726 5.092l18.965 37.55a10.001 10.001 0 0 1-.019 9.053l-18.915 37.073a10 10 0 0 1-11.748 5.043l-82.215-24.36c-7.638-2.263-14.726 4.877-12.408 12.498l25.136 82.646a10 10 0 0 1-5.095 11.854l-37.883 18.942a10.003 10.003 0 0 1-9.092-.076l-36.298-18.905a10 10 0 0 1-5.019-11.534l23.011-83.224c2.098-7.589-4.991-14.513-12.528-12.238L58.37 219.124a10 10 0 0 1-11.723-4.886l-19.66-37.051a10 10 0 0 1 0-9.374l19.694-37.115a10.001 10.001 0 0 1 11.64-4.911l80.642 23.584c7.585 2.218 14.624-4.823 12.405-12.407L128.645 59.33Z"/>
      <path stroke="#C9B203" stroke-linejoin="round" stroke-width="6" d="M131.524 58.487a7.001 7.001 0 0 1 3.053-7.93l36.363-22.348a7 7 0 0 1 7.222-.065l37.925 22.376a7 7 0 0 1 3.106 8.174l-24.772 76.944c-3.195 9.924 6.006 19.383 16.014 16.464l81.926-23.895a7 7 0 0 1 8.208 3.565l18.965 37.549a7.002 7.002 0 0 1-.013 6.337l-18.915 37.074a7 7 0 0 1-8.224 3.53l-82.215-24.36c-9.929-2.942-19.144 6.34-16.131 16.247l25.137 82.646a7.001 7.001 0 0 1-3.567 8.298l-37.883 18.941a7 7 0 0 1-6.364-.052l-36.298-18.906a7 7 0 0 1-3.514-8.074l23.011-83.223c2.728-9.866-6.487-18.868-16.286-15.91l-80.769 24.383a7 7 0 0 1-8.206-3.42l-19.66-37.051a7 7 0 0 1 0-6.562l19.694-37.115a6.999 6.999 0 0 1 8.148-3.437l80.642 23.584c9.86 2.883 19.011-6.27 16.126-16.129l-22.723-77.635Z"/>
    </g>
    <g class="Tls">
      <mask id="b" width="107" height="99" x="19" y="22" fill="#000" class="b" maskUnits="userSpaceOnUse">
        <path fill="#fff" d="M19 22h107v99H19z"/>
        <path d="M29.9 47.4c-2.667 0-4.733-.733-6.2-2.2-1.4-1.533-2.1-3.367-2.1-5.5 0-.533.067-1.167.2-1.9.2-.733.433-1.367.7-1.9.867.4 2.133.7 3.8.9 1.733.133 3.733.2 6 .2 3.4 0 7.233-.133 11.5-.4 4.333-.333 8.467-.667 12.4-1 3.933-.333 7.4-.633 10.4-.9 3-.333 4.933-.5 5.8-.5 2.467 0 4.233.933 5.3 2.8 1.133 1.8 1.967 4.233 2.5 7.3A136.024 136.024 0 0 0 75 44c-1.667-.133-3.1-.2-4.3-.2-2.133 0-4.3.067-6.5.2-2.133.133-4.3.333-6.5.6a160.26 160.26 0 0 0-3.1 6.9 257.046 257.046 0 0 0-3.4 8.2 443.956 443.956 0 0 0-3.1 8.6c-1 2.8-1.867 5.333-2.6 7.6a476.453 476.453 0 0 0-3.9 12.2 576.215 576.215 0 0 0-2.9 10.5c-.8 3.2-1.5 6.267-2.1 9.2-.6 2.933-1.133 5.8-1.6 8.6-4.467-.667-8.2-3.467-11.2-8.4a158.94 158.94 0 0 1 1.9-6.7c.8-2.467 1.7-5.233 2.7-8.3 1.067-3.133 2.3-6.667 3.7-10.6 1.4-3.933 3-8.4 4.8-13.4a755.67 755.67 0 0 1 2.1-5.8c.733-2.067 1.433-4.1 2.1-6.1a83.56 83.56 0 0 0 1.9-5.8c.6-1.867 1.1-3.567 1.5-5.1-2.8.333-5.467.633-8 .9-2.467.2-4.667.3-6.6.3Zm34.973 54.2c0-2.933.7-7.033 2.1-12.3 1.4-5.333 3.367-11.533 5.9-18.6 4.134-11.267 8-20.633 11.6-28.1 3.667-7.533 7.234-13.4 10.7-17.6.8.133 1.767.467 2.9 1 1.2.533 2.367 1.133 3.5 1.8a21.02 21.02 0 0 1 3 1.9c.934.667 1.534 1.2 1.8 1.6a123.168 123.168 0 0 0-13.7 19.8c-3.933 7.067-7.533 15.167-10.8 24.3-2.8 7.867-4.933 14.967-6.4 21.3-1.466 6.267-2.2 11.5-2.2 15.7v2.1c0 .267.034.533.1.8-.933-.133-1.733-.367-2.4-.7-.666-.333-1.1-.733-1.3-1.2-.133-.333-.5-.833-1.1-1.5-.6-.6-1.133-1.067-1.6-1.4-.6-.4-1.1-1.433-1.5-3.1-.4-1.733-.6-3.667-.6-5.8Zm58.233-33.4c-.066 1.267-.3 2.6-.7 4a20.068 20.068 0 0 1-1.3 3.7c-.533 1.067-1.1 1.967-1.7 2.7-.6.733-1.166 1.1-1.7 1.1-.733-.067-1.166-.567-1.3-1.5 0-.2.067-.5.2-.9.2-.467.4-.967.6-1.5.2-.533.367-1.067.5-1.6.2-.533.3-1 .3-1.4 0-.933-.233-1.7-.7-2.3-.4-.667-.966-1-1.7-1-2.666 0-4.7 1.667-6.1 5-1.4 3.333-2.1 8.233-2.1 14.7 0 .667.034 1.067.1 1.2 1.4-.067 2.634-.1 3.7-.1 1.134-.067 2.234-.1 3.3-.1.067.133.1.4.1.8 0 .6-.133 1.033-.4 1.3-1.533.333-2.766.633-3.7.9-.866.2-1.533.4-2 .6-.466.2-.766.433-.9.7-.066.2-.1.5-.1.9V97c.067.533.1 1.2.1 2 0 5.6-1.533 10.1-4.6 13.5-3 3.4-7.2 5.367-12.6 5.9-.933-.067-1.9-.333-2.9-.8s-1.966-1.067-2.9-1.8a13.661 13.661 0 0 1-2.3-2.5c-.666-.867-1.133-1.767-1.4-2.7 0-2.533.534-4.933 1.6-7.2a19.824 19.824 0 0 1 4.3-6.1c1.867-1.8 4.034-3.233 6.5-4.3 2.534-1.133 5.267-1.8 8.2-2 0-1.667-.166-3.3-.5-4.9a77.59 77.59 0 0 0-1.1-4.6c-.333-1.533-.666-3-1-4.4-.333-1.467-.5-2.9-.5-4.3 0-1.8.367-3.567 1.1-5.3a19.03 19.03 0 0 1 2.9-4.9c1.2-1.533 2.6-2.833 4.2-3.9 1.6-1.067 3.267-1.8 5-2.2.734.2 1.7.8 2.9 1.8 1.267.933 2.5 2 3.7 3.2a32.49 32.49 0 0 1 3.2 3.7c.934 1.2 1.5 2.2 1.7 3Zm-33 45.6c1.6-.667 3.1-1.633 4.5-2.9a21.2 21.2 0 0 0 3.8-4.3c1.067-1.6 1.9-3.3 2.5-5.1.667-1.8 1-3.567 1-5.3-1.333.2-2.8.833-4.4 1.9-1.6 1-3.1 2.233-4.5 3.7-1.4 1.4-2.566 2.867-3.5 4.4-.933 1.533-1.4 2.867-1.4 4 0 1.467.667 2.667 2 3.6Z"/>
      </mask>
      <path fill="#FF32CC" d="M29.9 47.4c-2.667 0-4.733-.733-6.2-2.2-1.4-1.533-2.1-3.367-2.1-5.5 0-.533.067-1.167.2-1.9.2-.733.433-1.367.7-1.9.867.4 2.133.7 3.8.9 1.733.133 3.733.2 6 .2 3.4 0 7.233-.133 11.5-.4 4.333-.333 8.467-.667 12.4-1 3.933-.333 7.4-.633 10.4-.9 3-.333 4.933-.5 5.8-.5 2.467 0 4.233.933 5.3 2.8 1.133 1.8 1.967 4.233 2.5 7.3A136.024 136.024 0 0 0 75 44c-1.667-.133-3.1-.2-4.3-.2-2.133 0-4.3.067-6.5.2-2.133.133-4.3.333-6.5.6a160.26 160.26 0 0 0-3.1 6.9 257.046 257.046 0 0 0-3.4 8.2 443.956 443.956 0 0 0-3.1 8.6c-1 2.8-1.867 5.333-2.6 7.6a476.453 476.453 0 0 0-3.9 12.2 576.215 576.215 0 0 0-2.9 10.5c-.8 3.2-1.5 6.267-2.1 9.2-.6 2.933-1.133 5.8-1.6 8.6-4.467-.667-8.2-3.467-11.2-8.4a158.94 158.94 0 0 1 1.9-6.7c.8-2.467 1.7-5.233 2.7-8.3 1.067-3.133 2.3-6.667 3.7-10.6 1.4-3.933 3-8.4 4.8-13.4a755.67 755.67 0 0 1 2.1-5.8c.733-2.067 1.433-4.1 2.1-6.1a83.56 83.56 0 0 0 1.9-5.8c.6-1.867 1.1-3.567 1.5-5.1-2.8.333-5.467.633-8 .9-2.467.2-4.667.3-6.6.3Zm34.973 54.2c0-2.933.7-7.033 2.1-12.3 1.4-5.333 3.367-11.533 5.9-18.6 4.134-11.267 8-20.633 11.6-28.1 3.667-7.533 7.234-13.4 10.7-17.6.8.133 1.767.467 2.9 1 1.2.533 2.367 1.133 3.5 1.8a21.02 21.02 0 0 1 3 1.9c.934.667 1.534 1.2 1.8 1.6a123.168 123.168 0 0 0-13.7 19.8c-3.933 7.067-7.533 15.167-10.8 24.3-2.8 7.867-4.933 14.967-6.4 21.3-1.466 6.267-2.2 11.5-2.2 15.7v2.1c0 .267.034.533.1.8-.933-.133-1.733-.367-2.4-.7-.666-.333-1.1-.733-1.3-1.2-.133-.333-.5-.833-1.1-1.5-.6-.6-1.133-1.067-1.6-1.4-.6-.4-1.1-1.433-1.5-3.1-.4-1.733-.6-3.667-.6-5.8Zm58.233-33.4c-.066 1.267-.3 2.6-.7 4a20.068 20.068 0 0 1-1.3 3.7c-.533 1.067-1.1 1.967-1.7 2.7-.6.733-1.166 1.1-1.7 1.1-.733-.067-1.166-.567-1.3-1.5 0-.2.067-.5.2-.9.2-.467.4-.967.6-1.5.2-.533.367-1.067.5-1.6.2-.533.3-1 .3-1.4 0-.933-.233-1.7-.7-2.3-.4-.667-.966-1-1.7-1-2.666 0-4.7 1.667-6.1 5-1.4 3.333-2.1 8.233-2.1 14.7 0 .667.034 1.067.1 1.2 1.4-.067 2.634-.1 3.7-.1 1.134-.067 2.234-.1 3.3-.1.067.133.1.4.1.8 0 .6-.133 1.033-.4 1.3-1.533.333-2.766.633-3.7.9-.866.2-1.533.4-2 .6-.466.2-.766.433-.9.7-.066.2-.1.5-.1.9V97c.067.533.1 1.2.1 2 0 5.6-1.533 10.1-4.6 13.5-3 3.4-7.2 5.367-12.6 5.9-.933-.067-1.9-.333-2.9-.8s-1.966-1.067-2.9-1.8a13.661 13.661 0 0 1-2.3-2.5c-.666-.867-1.133-1.767-1.4-2.7 0-2.533.534-4.933 1.6-7.2a19.824 19.824 0 0 1 4.3-6.1c1.867-1.8 4.034-3.233 6.5-4.3 2.534-1.133 5.267-1.8 8.2-2 0-1.667-.166-3.3-.5-4.9a77.59 77.59 0 0 0-1.1-4.6c-.333-1.533-.666-3-1-4.4-.333-1.467-.5-2.9-.5-4.3 0-1.8.367-3.567 1.1-5.3a19.03 19.03 0 0 1 2.9-4.9c1.2-1.533 2.6-2.833 4.2-3.9 1.6-1.067 3.267-1.8 5-2.2.734.2 1.7.8 2.9 1.8 1.267.933 2.5 2 3.7 3.2a32.49 32.49 0 0 1 3.2 3.7c.934 1.2 1.5 2.2 1.7 3Zm-33 45.6c1.6-.667 3.1-1.633 4.5-2.9a21.2 21.2 0 0 0 3.8-4.3c1.067-1.6 1.9-3.3 2.5-5.1.667-1.8 1-3.567 1-5.3-1.333.2-2.8.833-4.4 1.9-1.6 1-3.1 2.233-4.5 3.7-1.4 1.4-2.566 2.867-3.5 4.4-.933 1.533-1.4 2.867-1.4 4 0 1.467.667 2.667 2 3.6Z"/>
      <path fill="#000" d="m23.7 45.2-1.477 1.348.03.034.033.032L23.7 45.2Zm-1.9-7.4-1.93-.526-.022.083-.016.085 1.968.358Zm.7-1.9.838-1.816-1.76-.812-.867 1.734 1.789.894Zm3.8.9-.238 1.986.042.005.043.003.153-1.994Zm17.5-.2.125 1.996h.014l.014-.002L43.8 36.6Zm22.8-1.9.177 1.992.022-.002.022-.002L66.6 34.7ZM77.7 37l-1.737.992.022.037.022.037L77.7 37Zm2.5 7.3-.153 1.994 2.564.197-.44-2.534-1.971.343ZM75 44l-.16 1.994.042.003.041.002L75 44Zm-10.8 0-.121-1.996h-.004L64.2 44Zm-6.5.6-.24-1.986-1.086.132-.475.984 1.801.87Zm-3.1 6.9 1.833.8.004-.01.004-.008L54.6 51.5Zm-3.4 8.2-1.86-.735-.007.018-.007.02 1.874.697Zm-3.1 8.6 1.883.673.003-.007.002-.007L48.1 68.3Zm-2.6 7.6 1.897.632.003-.008.003-.008L45.5 75.9Zm-3.9 12.2-1.914-.581-.005.016-.004.016 1.923.549Zm-2.9 10.5-1.933-.513-.004.014-.003.014 1.94.485Zm-2.1 9.2 1.96.401-1.96-.401Zm-1.6 8.6-.295 1.978 1.945.29.323-1.939L35 116.4ZM23.8 108l-1.937-.5-.21.818.438.721L23.8 108Zm1.9-6.7-1.902-.617-.006.016-.005.017 1.913.584Zm2.7-8.3-1.893-.644-.005.012-.003.012L28.4 93Zm3.7-10.6 1.884.67-1.884-.67ZM36.9 69l1.882.677.002-.004L36.9 69Zm2.1-5.8 1.878.688.003-.01.004-.01L39 63.2Zm2.1-6.1-1.878-.689-.01.028-.01.029 1.898.632Zm1.9-5.8-1.904-.612-.01.031-.009.032L43 51.3Zm1.5-5.1 1.935.505.74-2.838-2.911.347.236 1.986Zm-8 .9.162 1.993.023-.002.024-.002L36.5 47.1Zm-6.6-1.7c-2.295 0-3.793-.621-4.786-1.614l-2.828 2.828c1.94 1.94 4.575 2.786 7.614 2.786v-4Zm-4.723-1.548C24.124 42.698 23.6 41.349 23.6 39.7h-4c0 2.617.877 4.936 2.623 6.848l2.954-2.697ZM23.6 39.7c0-.377.048-.884.168-1.542l-3.936-.716c-.147.809-.232 1.568-.232 2.258h4Zm.13-1.374a8.395 8.395 0 0 1 .559-1.532l-3.578-1.788a12.28 12.28 0 0 0-.84 2.268l3.859 1.052Zm-2.068-.61c1.148.53 2.658.86 4.4 1.07l.476-3.972c-1.59-.19-2.615-.46-3.2-.73l-1.676 3.632Zm4.485 1.078c1.797.138 3.85.206 6.153.206v-4c-2.23 0-4.177-.066-5.847-.194l-.306 3.988ZM32.3 39c3.45 0 7.327-.135 11.625-.404l-.25-3.992C39.44 34.869 35.65 35 32.3 35v4Zm11.653-.406c4.338-.334 8.477-.667 12.416-1.001l-.338-3.986c-3.928.333-8.056.666-12.384.999l.306 3.988Zm12.416-1.001c3.935-.334 7.405-.634 10.408-.9l-.354-3.985c-2.997.266-6.46.566-10.392.9l.338 3.985Zm10.452-.905c3.03-.337 4.845-.488 5.579-.488v-4c-1 0-3.051.182-6.02.512l.44 3.976ZM72.4 36.2c1.876 0 2.912.652 3.563 1.792l3.474-1.984c-1.482-2.593-3.98-3.808-7.037-3.808v4Zm3.607 1.866c.946 1.502 1.715 3.658 2.223 6.577l3.94-.686c-.559-3.215-1.457-5.925-2.778-8.023l-3.385 2.132Zm4.346 4.24a137.768 137.768 0 0 0-5.276-.304l-.154 3.996c1.708.066 3.416.165 5.124.296l.306-3.988Zm-5.194-.3c-1.7-.136-3.19-.206-4.459-.206v4c1.13 0 2.508.063 4.14.194l.32-3.988ZM70.7 41.8a109.2 109.2 0 0 0-6.621.204l.242 3.992c2.161-.13 4.287-.196 6.379-.196v-4Zm-6.625.204a114.2 114.2 0 0 0-6.616.61l.482 3.972a108.6 108.6 0 0 1 6.384-.59l-.25-3.992ZM55.9 43.73c-.951 1.97-1.998 4.3-3.14 6.987l3.682 1.564a159.05 159.05 0 0 1 3.06-6.813L55.9 43.73Zm-3.132 6.97a259.124 259.124 0 0 0-3.427 8.264l3.72 1.47a255.064 255.064 0 0 1 3.373-8.136L52.768 50.7Zm-3.441 8.301a445.912 445.912 0 0 0-3.114 8.64l3.776 1.317a442 442 0 0 1 3.086-8.562l-3.748-1.395Zm-3.11 8.625a270.968 270.968 0 0 0-2.619 7.657l3.806 1.232a267.409 267.409 0 0 1 2.58-7.543l-3.766-1.346Zm-2.613 7.64a479.224 479.224 0 0 0-3.917 12.252l3.828 1.162a474.35 474.35 0 0 1 3.883-12.148l-3.794-1.266ZM39.678 87.55a577.497 577.497 0 0 0-2.91 10.536l3.866 1.026c.863-3.253 1.826-6.74 2.89-10.464l-3.846-1.098ZM36.76 98.115a220.736 220.736 0 0 0-2.12 9.284l3.92.802a216.612 216.612 0 0 1 2.08-9.116l-3.88-.97Zm-2.12 9.284a241.057 241.057 0 0 0-1.613 8.672l3.946.658c.462-2.775.991-5.617 1.586-8.528l-3.918-.802Zm.655 7.023c-3.723-.556-7.002-2.882-9.786-7.461l-3.418 2.078c3.216 5.288 7.403 8.561 12.614 9.339l.59-3.956Zm-9.558-5.922c.524-2.034 1.15-4.239 1.876-6.616l-3.826-1.168a161.065 161.065 0 0 0-1.924 6.784l3.874 1Zm1.865-6.583c.8-2.465 1.7-5.231 2.7-8.297l-3.803-1.24c-1 3.067-1.901 5.835-2.701 8.303l3.804 1.234Zm2.691-8.273a816.957 816.957 0 0 1 3.691-10.573l-3.768-1.342a822.603 822.603 0 0 0-3.71 10.627l3.787 1.288Zm3.691-10.573c1.4-3.93 2.998-8.395 4.798-13.394l-3.764-1.354c-1.8 5.001-3.401 9.47-4.802 13.406l3.768 1.342Zm4.8-13.398a727.06 727.06 0 0 1 2.094-5.785l-3.756-1.377a737.264 737.264 0 0 0-2.105 5.816l3.766 1.346Zm2.1-5.804a338.064 338.064 0 0 0 2.113-6.136l-3.794-1.265a332.554 332.554 0 0 1-2.088 6.063l3.77 1.338Zm2.094-6.08a85.53 85.53 0 0 0 1.945-5.94l-3.846-1.098a81.592 81.592 0 0 1-1.855 5.66l3.756 1.377Zm1.926-5.877a97.99 97.99 0 0 0 1.531-5.207l-3.87-1.01a94.146 94.146 0 0 1-1.47 4.993l3.81 1.224Zm-.64-7.698c-2.792.332-5.45.631-7.973.897l.418 3.978c2.544-.268 5.22-.569 8.027-.903l-.472-3.972Zm-7.926.892c-2.427.197-4.571.294-6.438.294v4c2 0 4.255-.103 6.762-.306l-.324-3.988ZM66.973 89.3l1.933.514.002-.006-1.935-.508Zm5.9-18.6-1.877-.689-.003.007-.002.007 1.882.675Zm11.6-28.1-1.798-.875-.003.006 1.801.869Zm10.7-17.6.33-1.973-1.138-.19-.734.89L95.173 25Zm2.9 1-.851 1.81.02.009.02.009.811-1.828Zm3.5 1.8-1.014 1.724.039.023.04.02.935-1.767Zm3 1.9-1.219 1.585.028.022.029.02 1.162-1.627Zm1.8 1.6 1.526 1.293.974-1.149-.835-1.253-1.665 1.109Zm-13.7 19.8-1.747-.973 1.747.973Zm-10.8 24.3-1.883-.674v.003l1.883.671Zm-6.4 21.3 1.948.456v-.005l-1.948-.451Zm-2.1 18.6-.282 1.98 2.944.421-.721-2.886-1.94.485Zm-2.4-.7.895-1.789-.895 1.789Zm-1.3-1.2-1.856.743.009.022.01.023 1.837-.788Zm-1.1-1.5 1.487-1.338-.035-.039-.037-.037-1.415 1.414Zm-1.6-1.4 1.163-1.627-.026-.019-.027-.018-1.11 1.664Zm-1.5-3.1-1.948.45.002.008.002.009 1.944-.467Zm1.4-5.8c0-2.67.647-6.57 2.033-11.786l-3.865-1.028c-1.414 5.317-2.168 9.618-2.168 12.814h4Zm2.035-11.792c1.38-5.261 3.328-11.403 5.848-18.433l-3.765-1.35c-2.547 7.103-4.533 13.361-5.952 18.767l3.869 1.016Zm5.843-18.42c4.12-11.23 7.962-20.53 11.524-27.92l-3.603-1.737c-3.638 7.545-7.53 16.977-11.676 28.28l3.755 1.378Zm11.52-27.913c3.631-7.458 7.117-13.17 10.445-17.202l-3.085-2.546c-3.606 4.369-7.253 10.39-10.956 17.998l3.597 1.75Zm8.574-16.502c.549.091 1.33.344 2.377.837l1.703-3.62c-1.22-.574-2.372-.988-3.423-1.163l-.657 3.946Zm2.416.855c1.13.502 2.23 1.067 3.298 1.696l2.028-3.448a36.598 36.598 0 0 0-3.701-1.904l-1.625 3.656Zm3.377 1.74c1.05.556 1.952 1.13 2.716 1.717l2.439-3.17a23.106 23.106 0 0 0-3.284-2.083l-1.871 3.536Zm2.773 1.76c.431.307.754.563.984.767.245.218.318.32.314.314l3.329-2.218c-.491-.736-1.37-1.453-2.302-2.118l-2.325 3.255Zm1.437-1.321a125.162 125.162 0 0 0-13.922 20.12l3.495 1.946a121.178 121.178 0 0 1 13.478-19.48l-3.051-2.586Zm-13.922 20.12c-3.996 7.18-7.64 15.383-10.936 24.6l3.767 1.346c3.236-9.05 6.793-17.046 10.664-24l-3.495-1.946ZM79.989 74.73c-2.819 7.92-4.976 15.095-6.464 21.52l3.897.902c1.445-6.241 3.554-13.266 6.336-21.08l-3.769-1.342Zm-6.463 21.515c-1.485 6.346-2.253 11.744-2.253 16.156h4c0-3.988.7-9.057 2.148-15.244l-3.895-.912ZM71.273 112.4v2.1h4v-2.1h-4Zm0 2.1c0 .435.055.865.16 1.285l3.88-.97a1.292 1.292 0 0 1-.04-.315h-4Zm2.383-1.18c-.774-.111-1.357-.293-1.788-.509l-1.789 3.578c.902.451 1.92.735 3.012.891l.565-3.96Zm-1.788-.509a1.58 1.58 0 0 1-.363-.231c-.043-.039-.02-.032.007.032l-3.677 1.576c.457 1.065 1.347 1.752 2.244 2.201l1.789-3.578Zm-.338-.154c-.28-.702-.88-1.439-1.47-2.095l-2.973 2.676c.273.303.468.541.599.72.144.197.156.248.13.185l3.714-1.486Zm-1.542-2.171c-.645-.645-1.264-1.194-1.852-1.613l-2.325 3.254c.345.247.793.632 1.348 1.187l2.829-2.828Zm-1.905-1.65c.123.082.044.085-.134-.282-.165-.341-.35-.866-.53-1.621l-3.89.934c.218.911.484 1.737.82 2.429.321.666.792 1.386 1.515 1.868l2.219-3.328Zm-.66-1.886c-.36-1.56-.55-3.339-.55-5.35h-4c0 2.256.212 4.343.652 6.25l3.897-.9Zm55.683-38.75 1.997.105.016-.3-.072-.29-1.941.485Zm-.7 4-1.923-.55-.009.033-.008.032 1.94.485Zm-1.3 3.7 1.789.894.011-.02.01-.022-1.81-.852Zm-1.7 2.7 1.548 1.267-1.548-1.267Zm-1.7 1.1-.181 1.992.091.008h.09v-2Zm-1.3-1.5h-2v.142l.02.14 1.98-.282Zm.2-.9-1.838-.788-.033.077-.026.079 1.897.632Zm.6-1.5-1.872-.702 1.872.702Zm.5-1.6-1.872-.702-.04.106-.028.11 1.94.486Zm-.4-3.7-1.715 1.029.062.103.075.096 1.578-1.228Zm-7.8 4 1.844.775-1.844-.775Zm-2 15.9-1.789.894.583 1.166 1.301-.062-.095-1.998Zm3.7-.1v2h.059l.059-.004-.118-1.996Zm3.3-.1 1.789-.894-.553-1.106h-1.236v2Zm-.3 2.1.425 1.954.574-.124.415-.416-1.414-1.414Zm-3.7.9.45 1.949.05-.012.05-.014-.55-1.923Zm-2 .6.788 1.838-.788-1.838Zm-.9.7-1.789-.894-.063.127-.045.135 1.897.632Zm-.1 2.5h-2v.124l.016.124 1.984-.248Zm-4.5 15.5-1.485-1.34-.007.009-.007.008 1.499 1.323Zm-12.6 5.9-.142 1.995.17.012.169-.017-.197-1.99Zm-2.9-.8.846-1.812-.846 1.812Zm-2.9-1.8-1.292 1.527.028.023.029.023 1.235-1.573Zm-2.3-2.5 1.628-1.162-.02-.029-.023-.028-1.585 1.219Zm-1.4-2.7h-2v.28l.077.269 1.923-.549Zm1.6-7.2 1.81.852.005-.01.004-.01-1.819-.832Zm4.3-6.1 1.388 1.44-1.388-1.44Zm6.5-4.3.794 1.836.012-.005.011-.005L93.306 93Zm8.2-2 .136 1.995 1.864-.127V91h-2Zm-.5-4.9 1.958-.408-1.958.408Zm-1.1-4.6-1.954.425.011.05.014.051 1.93-.526Zm-1-4.4-1.95.443.002.01.003.01 1.945-.463Zm.6-9.6 1.842.78.005-.013.005-.012-1.852-.755Zm2.9-4.9 1.548 1.267.014-.017.013-.017-1.575-1.233Zm4.2-3.9-1.109-1.664 1.109 1.664Zm5-2.2.526-1.93-.485-.132-.49.113.449 1.949Zm2.9 1.8-1.28 1.536.046.039.048.035 1.186-1.61Zm6.9 6.9-1.61 1.186.016.021.016.02 1.578-1.227Zm-31.3 48.6-1.147 1.638.901.631 1.016-.423-.77-1.846Zm4.5-2.9-1.307-1.514-.018.015-.017.016 1.342 1.483Zm3.8-4.3 1.664 1.109-1.664-1.109Zm2.5-5.1-1.875-.695-.012.031-.01.032 1.897.632Zm1-5.3h2v-2.322l-2.296.344.296 1.978Zm-4.4 1.9 1.06 1.696.025-.016.025-.016-1.11-1.664Zm-4.5 3.7 1.415 1.414.016-.016.016-.017-1.447-1.381Zm-3.5 4.4-1.708-1.04 1.708 1.04Zm31.603-38.105c-.058 1.096-.261 2.28-.626 3.556l3.846 1.098c.436-1.524.699-3.007.774-4.444l-3.994-.21Zm-.643 3.62a18.154 18.154 0 0 1-1.169 3.333l3.619 1.704a22.132 22.132 0 0 0 1.431-4.067l-3.881-.97Zm-1.149 3.29c-.483.967-.973 1.735-1.459 2.329l3.096 2.532c.714-.873 1.358-1.905 1.941-3.072l-3.578-1.788Zm-1.459 2.329c-.217.265-.359.377-.413.412-.045.03.052-.046.261-.046v4c1.467 0 2.548-.978 3.248-1.834l-3.096-2.532Zm.029.374c.025.002.1.014.199.062.103.05.191.12.257.195.12.14.078.193.043-.048l-3.96.566c.099.693.34 1.463.894 2.102.595.686 1.387 1.032 2.205 1.107l.362-3.984Zm.519.492a.658.658 0 0 1-.005.096c0 .005.001-.007.008-.037a3.23 3.23 0 0 1 .095-.327l-3.795-1.264c-.143.43-.303.989-.303 1.532h4Zm.039-.112c.213-.498.424-1.027.634-1.586l-3.745-1.404c-.191.508-.38.979-.566 1.414l3.677 1.576Zm.634-1.586a16.8 16.8 0 0 0 .568-1.817l-3.881-.97c-.114.457-.258.918-.432 1.383l3.745 1.404Zm.5-1.6c.251-.67.427-1.384.427-2.102h-4c0 .082-.024.302-.172.698l3.745 1.404Zm.427-2.102c0-1.274-.324-2.503-1.121-3.528l-3.157 2.456c.136.175.278.48.278 1.072h4Zm-.985-3.329c-.735-1.225-1.929-1.971-3.415-1.971v4c.031 0 .036.003.022 0a.22.22 0 0 1-.061-.026.203.203 0 0 1-.024-.017l-.006-.004a.385.385 0 0 1 .054.076l3.43-2.058Zm-3.415-1.971c-1.788 0-3.413.572-4.793 1.703-1.345 1.103-2.369 2.662-3.151 4.522l3.688 1.55c.619-1.474 1.311-2.414 1.999-2.978.654-.536 1.379-.797 2.257-.797v-4Zm-7.944 6.225c-1.554 3.702-2.256 8.919-2.256 15.475h4c0-6.377.699-10.96 1.944-13.925l-3.688-1.55ZM105.406 89.2c0 .358.009.687.032.966.012.14.029.296.059.453.023.126.079.392.22.675l3.578-1.788a1.601 1.601 0 0 1 .133.375c.005.024.001.014-.004-.047a8.312 8.312 0 0 1-.018-.634h-4Zm2.195 3.198a76.917 76.917 0 0 1 3.605-.098v-4c-1.106 0-2.372.035-3.795.102l.19 3.996Zm3.723-.102a54.204 54.204 0 0 1 3.182-.096v-4a58.15 58.15 0 0 0-3.417.103l.235 3.993Zm1.393-1.202a1.688 1.688 0 0 1-.107-.284c-.012-.047-.014-.071-.013-.062a1.816 1.816 0 0 1 .009.252h4c0-.247-.01-.503-.04-.748a2.917 2.917 0 0 0-.271-.946l-3.578 1.788Zm-.111-.094c0 .161-.019.21-.011.187a.776.776 0 0 1 .197-.301l2.828 2.828c.812-.812.986-1.886.986-2.714h-4Zm1.175-.654c-1.553.337-2.833.648-3.824.931l1.099 3.846c.875-.25 2.062-.54 3.575-.869l-.85-3.908Zm-3.724.905c-.911.21-1.711.442-2.339.71l1.576 3.677c.306-.13.839-.3 1.662-.49l-.899-3.897Zm-2.339.71c-.621.267-1.451.745-1.901 1.645l3.578 1.788a.91.91 0 0 1-.236.31c-.021.016.01-.012.135-.066l-1.576-3.676Zm-2.009 1.907c-.171.512-.203 1.074-.203 1.532h4a2.975 2.975 0 0 1 .018-.339c-.001.003-.006.028-.02.071l-3.795-1.264Zm-.203 1.532V97h4v-1.6h-4Zm.016 1.848c.052.422.084 1 .084 1.752h4c0-.847-.035-1.603-.115-2.248l-3.969.496Zm.084 1.752c0 5.221-1.42 9.206-4.085 12.16l2.97 2.68c3.469-3.846 5.115-8.861 5.115-14.84h-4Zm-4.099 12.177c-2.602 2.948-6.296 4.739-11.297 5.233l.393 3.98c5.798-.572 10.505-2.715 13.903-6.567l-2.999-2.646Zm-10.958 5.228c-.65-.046-1.38-.236-2.197-.617l-1.692 3.624c1.183.552 2.387.896 3.604.983l.285-3.99Zm-2.197-.617a12.916 12.916 0 0 1-2.51-1.561l-2.471 3.146a16.913 16.913 0 0 0 3.29 2.039l1.691-3.624Zm-2.454-1.515a11.687 11.687 0 0 1-1.964-2.135l-3.255 2.324a15.679 15.679 0 0 0 2.635 2.865l2.584-3.054Zm-2.007-2.192c-.532-.692-.873-1.369-1.062-2.03l-3.846 1.098c.344 1.205.937 2.329 1.738 3.37l3.17-2.438Zm-.985-1.481c0-2.242.47-4.351 1.41-6.348l-3.62-1.704a18.71 18.71 0 0 0-1.79 8.052h4Zm1.42-6.368a17.814 17.814 0 0 1 3.868-5.491l-2.775-2.882a21.824 21.824 0 0 0-4.732 6.709l3.638 1.664Zm3.869-5.492c1.687-1.628 3.65-2.93 5.905-3.904l-1.588-3.672c-2.678 1.159-5.048 2.724-7.094 4.696l2.776 2.88Zm5.928-3.914c2.306-1.032 4.807-1.646 7.519-1.83l-.272-3.991c-3.154.215-6.12.934-8.88 2.17l1.633 3.65ZM103.506 91c0-1.801-.18-3.571-.542-5.308l-3.916.816A21.95 21.95 0 0 1 99.506 91h4Zm-.542-5.308a80.136 80.136 0 0 0-1.128-4.718l-3.86 1.052a75.802 75.802 0 0 1 1.072 4.482l3.916-.816Zm-1.103-4.617a237.327 237.327 0 0 0-1.009-4.438l-3.891.926c.33 1.386.66 2.84.99 4.362l3.91-.85Zm-1.004-4.418a17.358 17.358 0 0 1-.451-3.857h-4c0 1.56.186 3.142.55 4.743l3.901-.886Zm-.451-3.857c0-1.52.308-3.022.942-4.52l-3.684-1.56c-.832 1.97-1.258 4-1.258 6.08h4Zm.952-4.545c.66-1.62 1.526-3.08 2.596-4.388l-3.096-2.533a21.027 21.027 0 0 0-3.204 5.411l3.704 1.51Zm2.623-4.422a15.948 15.948 0 0 1 3.735-3.469l-2.219-3.328a19.944 19.944 0 0 0-4.666 4.331l3.15 2.466Zm3.735-3.469c1.415-.944 2.86-1.574 4.34-1.915l-.899-3.898c-1.987.459-3.876 1.295-5.66 2.485l2.219 3.328Zm3.364-1.934c.293.08.982.437 2.146 1.406l2.561-3.072c-1.236-1.03-2.481-1.874-3.655-2.194l-1.052 3.86Zm2.24 1.48c1.18.87 2.337 1.87 3.472 3.004l2.828-2.828a34.54 34.54 0 0 0-3.927-3.396l-2.373 3.22Zm3.472 3.004a30.472 30.472 0 0 1 3.004 3.472l3.22-2.372a34.467 34.467 0 0 0-3.396-3.928l-2.828 2.828Zm3.036 3.514c.882 1.135 1.241 1.868 1.338 2.257l3.881-.97c-.303-1.21-1.078-2.478-2.062-3.743l-3.157 2.456Zm-28.953 49.218c1.829-.762 3.52-1.857 5.073-3.263l-2.684-2.966c-1.246 1.127-2.555 1.965-3.927 2.537l1.538 3.692Zm5.038-3.232a23.173 23.173 0 0 0 4.157-4.705l-3.328-2.218a19.183 19.183 0 0 1-3.443 3.895l2.614 3.028Zm4.157-4.705a23.285 23.285 0 0 0 2.734-5.577l-3.795-1.264a19.315 19.315 0 0 1-2.267 4.623l3.328 2.218Zm2.712-5.514c.74-1.999 1.124-4 1.124-5.995h-4c0 1.472-.282 3.004-.875 4.605l3.751 1.39Zm-1.172-7.973c-1.721.258-3.466 1.049-5.213 2.214l2.219 3.328c1.452-.968 2.641-1.444 3.587-1.586l-.593-3.956Zm-5.164 2.182c-1.751 1.095-3.38 2.437-4.886 4.015l2.893 2.762c1.293-1.355 2.665-2.48 4.113-3.385l-2.12-3.392Zm-4.854 3.982c-1.501 1.501-2.77 3.092-3.794 4.774l3.417 2.08c.842-1.384 1.907-2.727 3.206-4.026l-2.829-2.828Zm-3.794 4.774c-1.023 1.68-1.692 3.384-1.692 5.04h4c0-.611.265-1.574 1.109-2.96l-3.417-2.08Zm-1.692 5.04c0 2.199 1.054 3.979 2.853 5.238l2.294-3.276c-.867-.607-1.147-1.227-1.147-1.962h-4Z" mask="url(#b)"/>
      <path fill="#000" fill-opacity=".2" d="m23.7 45.2-1.477 1.348.03.034.033.032L23.7 45.2Zm-1.9-7.4-1.93-.526-.022.083-.016.085 1.968.358Zm.7-1.9.838-1.816-1.76-.812-.867 1.734 1.789.894Zm3.8.9-.238 1.986.042.005.043.003.153-1.994Zm17.5-.2.125 1.996h.014l.014-.002L43.8 36.6Zm22.8-1.9.177 1.992.022-.002.022-.002L66.6 34.7ZM77.7 37l-1.737.992.022.037.022.037L77.7 37Zm2.5 7.3-.153 1.994 2.564.197-.44-2.534-1.971.343ZM75 44l-.16 1.994.042.003.041.002L75 44Zm-10.8 0-.121-1.996h-.004L64.2 44Zm-6.5.6-.24-1.986-1.086.132-.475.984 1.801.87Zm-3.1 6.9 1.833.8.004-.01.004-.008L54.6 51.5Zm-3.4 8.2-1.86-.735-.007.018-.007.02 1.874.697Zm-3.1 8.6 1.883.673.003-.007.002-.007L48.1 68.3Zm-2.6 7.6 1.897.632.003-.008.003-.008L45.5 75.9Zm-3.9 12.2-1.914-.581-.005.016-.004.016 1.923.549Zm-2.9 10.5-1.933-.513-.004.014-.003.014 1.94.485Zm-2.1 9.2 1.96.401-1.96-.401Zm-1.6 8.6-.295 1.978 1.945.29.323-1.939L35 116.4ZM23.8 108l-1.937-.5-.21.818.438.721L23.8 108Zm1.9-6.7-1.902-.617-.006.016-.005.017 1.913.584Zm2.7-8.3-1.893-.644-.005.012-.003.012L28.4 93Zm3.7-10.6 1.884.67-1.884-.67ZM36.9 69l1.882.677.002-.004L36.9 69Zm2.1-5.8 1.878.688.003-.01.004-.01L39 63.2Zm2.1-6.1-1.878-.689-.01.028-.01.029 1.898.632Zm1.9-5.8-1.904-.612-.01.031-.009.032L43 51.3Zm1.5-5.1 1.935.505.74-2.838-2.911.347.236 1.986Zm-8 .9.162 1.993.023-.002.024-.002L36.5 47.1Zm-6.6-1.7c-2.295 0-3.793-.621-4.786-1.614l-2.828 2.828c1.94 1.94 4.575 2.786 7.614 2.786v-4Zm-4.723-1.548C24.124 42.698 23.6 41.349 23.6 39.7h-4c0 2.617.877 4.936 2.623 6.848l2.954-2.697ZM23.6 39.7c0-.377.048-.884.168-1.542l-3.936-.716c-.147.809-.232 1.568-.232 2.258h4Zm.13-1.374a8.395 8.395 0 0 1 .559-1.532l-3.578-1.788a12.28 12.28 0 0 0-.84 2.268l3.859 1.052Zm-2.068-.61c1.148.53 2.658.86 4.4 1.07l.476-3.972c-1.59-.19-2.615-.46-3.2-.73l-1.676 3.632Zm4.485 1.078c1.797.138 3.85.206 6.153.206v-4c-2.23 0-4.177-.066-5.847-.194l-.306 3.988ZM32.3 39c3.45 0 7.327-.135 11.625-.404l-.25-3.992C39.44 34.869 35.65 35 32.3 35v4Zm11.653-.406c4.338-.334 8.477-.667 12.416-1.001l-.338-3.986c-3.928.333-8.056.666-12.384.999l.306 3.988Zm12.416-1.001c3.935-.334 7.405-.634 10.408-.9l-.354-3.985c-2.997.266-6.46.566-10.392.9l.338 3.985Zm10.452-.905c3.03-.337 4.845-.488 5.579-.488v-4c-1 0-3.051.182-6.02.512l.44 3.976ZM72.4 36.2c1.876 0 2.912.652 3.563 1.792l3.474-1.984c-1.482-2.593-3.98-3.808-7.037-3.808v4Zm3.607 1.866c.946 1.502 1.715 3.658 2.223 6.577l3.94-.686c-.559-3.215-1.457-5.925-2.778-8.023l-3.385 2.132Zm4.346 4.24a137.768 137.768 0 0 0-5.276-.304l-.154 3.996c1.708.066 3.416.165 5.124.296l.306-3.988Zm-5.194-.3c-1.7-.136-3.19-.206-4.459-.206v4c1.13 0 2.508.063 4.14.194l.32-3.988ZM70.7 41.8a109.2 109.2 0 0 0-6.621.204l.242 3.992c2.161-.13 4.287-.196 6.379-.196v-4Zm-6.625.204a114.2 114.2 0 0 0-6.616.61l.482 3.972a108.6 108.6 0 0 1 6.384-.59l-.25-3.992ZM55.9 43.73c-.951 1.97-1.998 4.3-3.14 6.987l3.682 1.564a159.05 159.05 0 0 1 3.06-6.813L55.9 43.73Zm-3.132 6.97a259.124 259.124 0 0 0-3.427 8.264l3.72 1.47a255.064 255.064 0 0 1 3.373-8.136L52.768 50.7Zm-3.441 8.301a445.912 445.912 0 0 0-3.114 8.64l3.776 1.317a442 442 0 0 1 3.086-8.562l-3.748-1.395Zm-3.11 8.625a270.968 270.968 0 0 0-2.619 7.657l3.806 1.232a267.409 267.409 0 0 1 2.58-7.543l-3.766-1.346Zm-2.613 7.64a479.224 479.224 0 0 0-3.917 12.252l3.828 1.162a474.35 474.35 0 0 1 3.883-12.148l-3.794-1.266ZM39.678 87.55a577.497 577.497 0 0 0-2.91 10.536l3.866 1.026c.863-3.253 1.826-6.74 2.89-10.464l-3.846-1.098ZM36.76 98.115a220.736 220.736 0 0 0-2.12 9.284l3.92.802a216.612 216.612 0 0 1 2.08-9.116l-3.88-.97Zm-2.12 9.284a241.057 241.057 0 0 0-1.613 8.672l3.946.658c.462-2.775.991-5.617 1.586-8.528l-3.918-.802Zm.655 7.023c-3.723-.556-7.002-2.882-9.786-7.461l-3.418 2.078c3.216 5.288 7.403 8.561 12.614 9.339l.59-3.956Zm-9.558-5.922c.524-2.034 1.15-4.239 1.876-6.616l-3.826-1.168a161.065 161.065 0 0 0-1.924 6.784l3.874 1Zm1.865-6.583c.8-2.465 1.7-5.231 2.7-8.297l-3.803-1.24c-1 3.067-1.901 5.835-2.701 8.303l3.804 1.234Zm2.691-8.273a816.957 816.957 0 0 1 3.691-10.573l-3.768-1.342a822.603 822.603 0 0 0-3.71 10.627l3.787 1.288Zm3.691-10.573c1.4-3.93 2.998-8.395 4.798-13.394l-3.764-1.354c-1.8 5.001-3.401 9.47-4.802 13.406l3.768 1.342Zm4.8-13.398a727.06 727.06 0 0 1 2.094-5.785l-3.756-1.377a737.264 737.264 0 0 0-2.105 5.816l3.766 1.346Zm2.1-5.804a338.064 338.064 0 0 0 2.113-6.136l-3.794-1.265a332.554 332.554 0 0 1-2.088 6.063l3.77 1.338Zm2.094-6.08a85.53 85.53 0 0 0 1.945-5.94l-3.846-1.098a81.592 81.592 0 0 1-1.855 5.66l3.756 1.377Zm1.926-5.877a97.99 97.99 0 0 0 1.531-5.207l-3.87-1.01a94.146 94.146 0 0 1-1.47 4.993l3.81 1.224Zm-.64-7.698c-2.792.332-5.45.631-7.973.897l.418 3.978c2.544-.268 5.22-.569 8.027-.903l-.472-3.972Zm-7.926.892c-2.427.197-4.571.294-6.438.294v4c2 0 4.255-.103 6.762-.306l-.324-3.988ZM66.973 89.3l1.933.514.002-.006-1.935-.508Zm5.9-18.6-1.877-.689-.003.007-.002.007 1.882.675Zm11.6-28.1-1.798-.875-.003.006 1.801.869Zm10.7-17.6.33-1.973-1.138-.19-.734.89L95.173 25Zm2.9 1-.851 1.81.02.009.02.009.811-1.828Zm3.5 1.8-1.014 1.724.039.023.04.02.935-1.767Zm3 1.9-1.219 1.585.028.022.029.02 1.162-1.627Zm1.8 1.6 1.526 1.293.974-1.149-.835-1.253-1.665 1.109Zm-13.7 19.8-1.747-.973 1.747.973Zm-10.8 24.3-1.883-.674v.003l1.883.671Zm-6.4 21.3 1.948.456v-.005l-1.948-.451Zm-2.1 18.6-.282 1.98 2.944.421-.721-2.886-1.94.485Zm-2.4-.7.895-1.789-.895 1.789Zm-1.3-1.2-1.856.743.009.022.01.023 1.837-.788Zm-1.1-1.5 1.487-1.338-.035-.039-.037-.037-1.415 1.414Zm-1.6-1.4 1.163-1.627-.026-.019-.027-.018-1.11 1.664Zm-1.5-3.1-1.948.45.002.008.002.009 1.944-.467Zm1.4-5.8c0-2.67.647-6.57 2.033-11.786l-3.865-1.028c-1.414 5.317-2.168 9.618-2.168 12.814h4Zm2.035-11.792c1.38-5.261 3.328-11.403 5.848-18.433l-3.765-1.35c-2.547 7.103-4.533 13.361-5.952 18.767l3.869 1.016Zm5.843-18.42c4.12-11.23 7.962-20.53 11.524-27.92l-3.603-1.737c-3.638 7.545-7.53 16.977-11.676 28.28l3.755 1.378Zm11.52-27.913c3.631-7.458 7.117-13.17 10.445-17.202l-3.085-2.546c-3.606 4.369-7.253 10.39-10.956 17.998l3.597 1.75Zm8.574-16.502c.549.091 1.33.344 2.377.837l1.703-3.62c-1.22-.574-2.372-.988-3.423-1.163l-.657 3.946Zm2.416.855c1.13.502 2.23 1.067 3.298 1.696l2.028-3.448a36.598 36.598 0 0 0-3.701-1.904l-1.625 3.656Zm3.377 1.74c1.05.556 1.952 1.13 2.716 1.717l2.439-3.17a23.106 23.106 0 0 0-3.284-2.083l-1.871 3.536Zm2.773 1.76c.431.307.754.563.984.767.245.218.318.32.314.314l3.329-2.218c-.491-.736-1.37-1.453-2.302-2.118l-2.325 3.255Zm1.437-1.321a125.162 125.162 0 0 0-13.922 20.12l3.495 1.946a121.178 121.178 0 0 1 13.478-19.48l-3.051-2.586Zm-13.922 20.12c-3.996 7.18-7.64 15.383-10.936 24.6l3.767 1.346c3.236-9.05 6.793-17.046 10.664-24l-3.495-1.946ZM79.989 74.73c-2.819 7.92-4.976 15.095-6.464 21.52l3.897.902c1.445-6.241 3.554-13.266 6.336-21.08l-3.769-1.342Zm-6.463 21.515c-1.485 6.346-2.253 11.744-2.253 16.156h4c0-3.988.7-9.057 2.148-15.244l-3.895-.912ZM71.273 112.4v2.1h4v-2.1h-4Zm0 2.1c0 .435.055.865.16 1.285l3.88-.97a1.292 1.292 0 0 1-.04-.315h-4Zm2.383-1.18c-.774-.111-1.357-.293-1.788-.509l-1.789 3.578c.902.451 1.92.735 3.012.891l.565-3.96Zm-1.788-.509a1.58 1.58 0 0 1-.363-.231c-.043-.039-.02-.032.007.032l-3.677 1.576c.457 1.065 1.347 1.752 2.244 2.201l1.789-3.578Zm-.338-.154c-.28-.702-.88-1.439-1.47-2.095l-2.973 2.676c.273.303.468.541.599.72.144.197.156.248.13.185l3.714-1.486Zm-1.542-2.171c-.645-.645-1.264-1.194-1.852-1.613l-2.325 3.254c.345.247.793.632 1.348 1.187l2.829-2.828Zm-1.905-1.65c.123.082.044.085-.134-.282-.165-.341-.35-.866-.53-1.621l-3.89.934c.218.911.484 1.737.82 2.429.321.666.792 1.386 1.515 1.868l2.219-3.328Zm-.66-1.886c-.36-1.56-.55-3.339-.55-5.35h-4c0 2.256.212 4.343.652 6.25l3.897-.9Zm55.683-38.75 1.997.105.016-.3-.072-.29-1.941.485Zm-.7 4-1.923-.55-.009.033-.008.032 1.94.485Zm-1.3 3.7 1.789.894.011-.02.01-.022-1.81-.852Zm-1.7 2.7 1.548 1.267-1.548-1.267Zm-1.7 1.1-.181 1.992.091.008h.09v-2Zm-1.3-1.5h-2v.142l.02.14 1.98-.282Zm.2-.9-1.838-.788-.033.077-.026.079 1.897.632Zm.6-1.5-1.872-.702 1.872.702Zm.5-1.6-1.872-.702-.04.106-.028.11 1.94.486Zm-.4-3.7-1.715 1.029.062.103.075.096 1.578-1.228Zm-7.8 4 1.844.775-1.844-.775Zm-2 15.9-1.789.894.583 1.166 1.301-.062-.095-1.998Zm3.7-.1v2h.059l.059-.004-.118-1.996Zm3.3-.1 1.789-.894-.553-1.106h-1.236v2Zm-.3 2.1.425 1.954.574-.124.415-.416-1.414-1.414Zm-3.7.9.45 1.949.05-.012.05-.014-.55-1.923Zm-2 .6.788 1.838-.788-1.838Zm-.9.7-1.789-.894-.063.127-.045.135 1.897.632Zm-.1 2.5h-2v.124l.016.124 1.984-.248Zm-4.5 15.5-1.485-1.34-.007.009-.007.008 1.499 1.323Zm-12.6 5.9-.142 1.995.17.012.169-.017-.197-1.99Zm-2.9-.8.846-1.812-.846 1.812Zm-2.9-1.8-1.292 1.527.028.023.029.023 1.235-1.573Zm-2.3-2.5 1.628-1.162-.02-.029-.023-.028-1.585 1.219Zm-1.4-2.7h-2v.28l.077.269 1.923-.549Zm1.6-7.2 1.81.852.005-.01.004-.01-1.819-.832Zm4.3-6.1 1.388 1.44-1.388-1.44Zm6.5-4.3.794 1.836.012-.005.011-.005L93.306 93Zm8.2-2 .136 1.995 1.864-.127V91h-2Zm-.5-4.9 1.958-.408-1.958.408Zm-1.1-4.6-1.954.425.011.05.014.051 1.93-.526Zm-1-4.4-1.95.443.002.01.003.01 1.945-.463Zm.6-9.6 1.842.78.005-.013.005-.012-1.852-.755Zm2.9-4.9 1.548 1.267.014-.017.013-.017-1.575-1.233Zm4.2-3.9-1.109-1.664 1.109 1.664Zm5-2.2.526-1.93-.485-.132-.49.113.449 1.949Zm2.9 1.8-1.28 1.536.046.039.048.035 1.186-1.61Zm6.9 6.9-1.61 1.186.016.021.016.02 1.578-1.227Zm-31.3 48.6-1.147 1.638.901.631 1.016-.423-.77-1.846Zm4.5-2.9-1.307-1.514-.018.015-.017.016 1.342 1.483Zm3.8-4.3 1.664 1.109-1.664-1.109Zm2.5-5.1-1.875-.695-.012.031-.01.032 1.897.632Zm1-5.3h2v-2.322l-2.296.344.296 1.978Zm-4.4 1.9 1.06 1.696.025-.016.025-.016-1.11-1.664Zm-4.5 3.7 1.415 1.414.016-.016.016-.017-1.447-1.381Zm-3.5 4.4-1.708-1.04 1.708 1.04Zm31.603-38.105c-.058 1.096-.261 2.28-.626 3.556l3.846 1.098c.436-1.524.699-3.007.774-4.444l-3.994-.21Zm-.643 3.62a18.154 18.154 0 0 1-1.169 3.333l3.619 1.704a22.132 22.132 0 0 0 1.431-4.067l-3.881-.97Zm-1.149 3.29c-.483.967-.973 1.735-1.459 2.329l3.096 2.532c.714-.873 1.358-1.905 1.941-3.072l-3.578-1.788Zm-1.459 2.329c-.217.265-.359.377-.413.412-.045.03.052-.046.261-.046v4c1.467 0 2.548-.978 3.248-1.834l-3.096-2.532Zm.029.374c.025.002.1.014.199.062.103.05.191.12.257.195.12.14.078.193.043-.048l-3.96.566c.099.693.34 1.463.894 2.102.595.686 1.387 1.032 2.205 1.107l.362-3.984Zm.519.492a.658.658 0 0 1-.005.096c0 .005.001-.007.008-.037a3.23 3.23 0 0 1 .095-.327l-3.795-1.264c-.143.43-.303.989-.303 1.532h4Zm.039-.112c.213-.498.424-1.027.634-1.586l-3.745-1.404c-.191.508-.38.979-.566 1.414l3.677 1.576Zm.634-1.586a16.8 16.8 0 0 0 .568-1.817l-3.881-.97c-.114.457-.258.918-.432 1.383l3.745 1.404Zm.5-1.6c.251-.67.427-1.384.427-2.102h-4c0 .082-.024.302-.172.698l3.745 1.404Zm.427-2.102c0-1.274-.324-2.503-1.121-3.528l-3.157 2.456c.136.175.278.48.278 1.072h4Zm-.985-3.329c-.735-1.225-1.929-1.971-3.415-1.971v4c.031 0 .036.003.022 0a.22.22 0 0 1-.061-.026.203.203 0 0 1-.024-.017l-.006-.004a.385.385 0 0 1 .054.076l3.43-2.058Zm-3.415-1.971c-1.788 0-3.413.572-4.793 1.703-1.345 1.103-2.369 2.662-3.151 4.522l3.688 1.55c.619-1.474 1.311-2.414 1.999-2.978.654-.536 1.379-.797 2.257-.797v-4Zm-7.944 6.225c-1.554 3.702-2.256 8.919-2.256 15.475h4c0-6.377.699-10.96 1.944-13.925l-3.688-1.55ZM105.406 89.2c0 .358.009.687.032.966.012.14.029.296.059.453.023.126.079.392.22.675l3.578-1.788a1.601 1.601 0 0 1 .133.375c.005.024.001.014-.004-.047a8.312 8.312 0 0 1-.018-.634h-4Zm2.195 3.198a76.917 76.917 0 0 1 3.605-.098v-4c-1.106 0-2.372.035-3.795.102l.19 3.996Zm3.723-.102a54.204 54.204 0 0 1 3.182-.096v-4a58.15 58.15 0 0 0-3.417.103l.235 3.993Zm1.393-1.202a1.688 1.688 0 0 1-.107-.284c-.012-.047-.014-.071-.013-.062a1.816 1.816 0 0 1 .009.252h4c0-.247-.01-.503-.04-.748a2.917 2.917 0 0 0-.271-.946l-3.578 1.788Zm-.111-.094c0 .161-.019.21-.011.187a.776.776 0 0 1 .197-.301l2.828 2.828c.812-.812.986-1.886.986-2.714h-4Zm1.175-.654c-1.553.337-2.833.648-3.824.931l1.099 3.846c.875-.25 2.062-.54 3.575-.869l-.85-3.908Zm-3.724.905c-.911.21-1.711.442-2.339.71l1.576 3.677c.306-.13.839-.3 1.662-.49l-.899-3.897Zm-2.339.71c-.621.267-1.451.745-1.901 1.645l3.578 1.788a.91.91 0 0 1-.236.31c-.021.016.01-.012.135-.066l-1.576-3.676Zm-2.009 1.907c-.171.512-.203 1.074-.203 1.532h4a2.975 2.975 0 0 1 .018-.339c-.001.003-.006.028-.02.071l-3.795-1.264Zm-.203 1.532V97h4v-1.6h-4Zm.016 1.848c.052.422.084 1 .084 1.752h4c0-.847-.035-1.603-.115-2.248l-3.969.496Zm.084 1.752c0 5.221-1.42 9.206-4.085 12.16l2.97 2.68c3.469-3.846 5.115-8.861 5.115-14.84h-4Zm-4.099 12.177c-2.602 2.948-6.296 4.739-11.297 5.233l.393 3.98c5.798-.572 10.505-2.715 13.903-6.567l-2.999-2.646Zm-10.958 5.228c-.65-.046-1.38-.236-2.197-.617l-1.692 3.624c1.183.552 2.387.896 3.604.983l.285-3.99Zm-2.197-.617a12.916 12.916 0 0 1-2.51-1.561l-2.471 3.146a16.913 16.913 0 0 0 3.29 2.039l1.691-3.624Zm-2.454-1.515a11.687 11.687 0 0 1-1.964-2.135l-3.255 2.324a15.679 15.679 0 0 0 2.635 2.865l2.584-3.054Zm-2.007-2.192c-.532-.692-.873-1.369-1.062-2.03l-3.846 1.098c.344 1.205.937 2.329 1.738 3.37l3.17-2.438Zm-.985-1.481c0-2.242.47-4.351 1.41-6.348l-3.62-1.704a18.71 18.71 0 0 0-1.79 8.052h4Zm1.42-6.368a17.814 17.814 0 0 1 3.868-5.491l-2.775-2.882a21.824 21.824 0 0 0-4.732 6.709l3.638 1.664Zm3.869-5.492c1.687-1.628 3.65-2.93 5.905-3.904l-1.588-3.672c-2.678 1.159-5.048 2.724-7.094 4.696l2.776 2.88Zm5.928-3.914c2.306-1.032 4.807-1.646 7.519-1.83l-.272-3.991c-3.154.215-6.12.934-8.88 2.17l1.633 3.65ZM103.506 91c0-1.801-.18-3.571-.542-5.308l-3.916.816A21.95 21.95 0 0 1 99.506 91h4Zm-.542-5.308a80.136 80.136 0 0 0-1.128-4.718l-3.86 1.052a75.802 75.802 0 0 1 1.072 4.482l3.916-.816Zm-1.103-4.617a237.327 237.327 0 0 0-1.009-4.438l-3.891.926c.33 1.386.66 2.84.99 4.362l3.91-.85Zm-1.004-4.418a17.358 17.358 0 0 1-.451-3.857h-4c0 1.56.186 3.142.55 4.743l3.901-.886Zm-.451-3.857c0-1.52.308-3.022.942-4.52l-3.684-1.56c-.832 1.97-1.258 4-1.258 6.08h4Zm.952-4.545c.66-1.62 1.526-3.08 2.596-4.388l-3.096-2.533a21.027 21.027 0 0 0-3.204 5.411l3.704 1.51Zm2.623-4.422a15.948 15.948 0 0 1 3.735-3.469l-2.219-3.328a19.944 19.944 0 0 0-4.666 4.331l3.15 2.466Zm3.735-3.469c1.415-.944 2.86-1.574 4.34-1.915l-.899-3.898c-1.987.459-3.876 1.295-5.66 2.485l2.219 3.328Zm3.364-1.934c.293.08.982.437 2.146 1.406l2.561-3.072c-1.236-1.03-2.481-1.874-3.655-2.194l-1.052 3.86Zm2.24 1.48c1.18.87 2.337 1.87 3.472 3.004l2.828-2.828a34.54 34.54 0 0 0-3.927-3.396l-2.373 3.22Zm3.472 3.004a30.472 30.472 0 0 1 3.004 3.472l3.22-2.372a34.467 34.467 0 0 0-3.396-3.928l-2.828 2.828Zm3.036 3.514c.882 1.135 1.241 1.868 1.338 2.257l3.881-.97c-.303-1.21-1.078-2.478-2.062-3.743l-3.157 2.456Zm-28.953 49.218c1.829-.762 3.52-1.857 5.073-3.263l-2.684-2.966c-1.246 1.127-2.555 1.965-3.927 2.537l1.538 3.692Zm5.038-3.232a23.173 23.173 0 0 0 4.157-4.705l-3.328-2.218a19.183 19.183 0 0 1-3.443 3.895l2.614 3.028Zm4.157-4.705a23.285 23.285 0 0 0 2.734-5.577l-3.795-1.264a19.315 19.315 0 0 1-2.267 4.623l3.328 2.218Zm2.712-5.514c.74-1.999 1.124-4 1.124-5.995h-4c0 1.472-.282 3.004-.875 4.605l3.751 1.39Zm-1.172-7.973c-1.721.258-3.466 1.049-5.213 2.214l2.219 3.328c1.452-.968 2.641-1.444 3.587-1.586l-.593-3.956Zm-5.164 2.182c-1.751 1.095-3.38 2.437-4.886 4.015l2.893 2.762c1.293-1.355 2.665-2.48 4.113-3.385l-2.12-3.392Zm-4.854 3.982c-1.501 1.501-2.77 3.092-3.794 4.774l3.417 2.08c.842-1.384 1.907-2.727 3.206-4.026l-2.829-2.828Zm-3.794 4.774c-1.023 1.68-1.692 3.384-1.692 5.04h4c0-.611.265-1.574 1.109-2.96l-3.417-2.08Zm-1.692 5.04c0 2.199 1.054 3.979 2.853 5.238l2.294-3.276c-.867-.607-1.147-1.227-1.147-1.962h-4Z" mask="url(#b)"/>
      <path fill="#000" fill-opacity=".5" d="m23.7 45.2-1.477 1.348.03.034.033.032L23.7 45.2Zm-1.9-7.4-1.93-.526-.022.083-.016.085 1.968.358Zm.7-1.9.838-1.816-1.76-.812-.867 1.734 1.789.894Zm3.8.9-.238 1.986.042.005.043.003.153-1.994Zm17.5-.2.125 1.996h.014l.014-.002L43.8 36.6Zm22.8-1.9.177 1.992.022-.002.022-.002L66.6 34.7ZM77.7 37l-1.737.992.022.037.022.037L77.7 37Zm2.5 7.3-.153 1.994 2.564.197-.44-2.534-1.971.343ZM75 44l-.16 1.994.042.003.041.002L75 44Zm-10.8 0-.121-1.996h-.004L64.2 44Zm-6.5.6-.24-1.986-1.086.132-.475.984 1.801.87Zm-3.1 6.9 1.833.8.004-.01.004-.008L54.6 51.5Zm-3.4 8.2-1.86-.735-.007.018-.007.02 1.874.697Zm-3.1 8.6 1.883.673.003-.007.002-.007L48.1 68.3Zm-2.6 7.6 1.897.632.003-.008.003-.008L45.5 75.9Zm-3.9 12.2-1.914-.581-.005.016-.004.016 1.923.549Zm-2.9 10.5-1.933-.513-.004.014-.003.014 1.94.485Zm-2.1 9.2 1.96.401-1.96-.401Zm-1.6 8.6-.295 1.978 1.945.29.323-1.939L35 116.4ZM23.8 108l-1.937-.5-.21.818.438.721L23.8 108Zm1.9-6.7-1.902-.617-.006.016-.005.017 1.913.584Zm2.7-8.3-1.893-.644-.005.012-.003.012L28.4 93Zm3.7-10.6 1.884.67-1.884-.67ZM36.9 69l1.882.677.002-.004L36.9 69Zm2.1-5.8 1.878.688.003-.01.004-.01L39 63.2Zm2.1-6.1-1.878-.689-.01.028-.01.029 1.898.632Zm1.9-5.8-1.904-.612-.01.031-.009.032L43 51.3Zm1.5-5.1 1.935.505.74-2.838-2.911.347.236 1.986Zm-8 .9.162 1.993.023-.002.024-.002L36.5 47.1Zm-6.6-1.7c-2.295 0-3.793-.621-4.786-1.614l-2.828 2.828c1.94 1.94 4.575 2.786 7.614 2.786v-4Zm-4.723-1.548C24.124 42.698 23.6 41.349 23.6 39.7h-4c0 2.617.877 4.936 2.623 6.848l2.954-2.697ZM23.6 39.7c0-.377.048-.884.168-1.542l-3.936-.716c-.147.809-.232 1.568-.232 2.258h4Zm.13-1.374a8.395 8.395 0 0 1 .559-1.532l-3.578-1.788a12.28 12.28 0 0 0-.84 2.268l3.859 1.052Zm-2.068-.61c1.148.53 2.658.86 4.4 1.07l.476-3.972c-1.59-.19-2.615-.46-3.2-.73l-1.676 3.632Zm4.485 1.078c1.797.138 3.85.206 6.153.206v-4c-2.23 0-4.177-.066-5.847-.194l-.306 3.988ZM32.3 39c3.45 0 7.327-.135 11.625-.404l-.25-3.992C39.44 34.869 35.65 35 32.3 35v4Zm11.653-.406c4.338-.334 8.477-.667 12.416-1.001l-.338-3.986c-3.928.333-8.056.666-12.384.999l.306 3.988Zm12.416-1.001c3.935-.334 7.405-.634 10.408-.9l-.354-3.985c-2.997.266-6.46.566-10.392.9l.338 3.985Zm10.452-.905c3.03-.337 4.845-.488 5.579-.488v-4c-1 0-3.051.182-6.02.512l.44 3.976ZM72.4 36.2c1.876 0 2.912.652 3.563 1.792l3.474-1.984c-1.482-2.593-3.98-3.808-7.037-3.808v4Zm3.607 1.866c.946 1.502 1.715 3.658 2.223 6.577l3.94-.686c-.559-3.215-1.457-5.925-2.778-8.023l-3.385 2.132Zm4.346 4.24a137.768 137.768 0 0 0-5.276-.304l-.154 3.996c1.708.066 3.416.165 5.124.296l.306-3.988Zm-5.194-.3c-1.7-.136-3.19-.206-4.459-.206v4c1.13 0 2.508.063 4.14.194l.32-3.988ZM70.7 41.8a109.2 109.2 0 0 0-6.621.204l.242 3.992c2.161-.13 4.287-.196 6.379-.196v-4Zm-6.625.204a114.2 114.2 0 0 0-6.616.61l.482 3.972a108.6 108.6 0 0 1 6.384-.59l-.25-3.992ZM55.9 43.73c-.951 1.97-1.998 4.3-3.14 6.987l3.682 1.564a159.05 159.05 0 0 1 3.06-6.813L55.9 43.73Zm-3.132 6.97a259.124 259.124 0 0 0-3.427 8.264l3.72 1.47a255.064 255.064 0 0 1 3.373-8.136L52.768 50.7Zm-3.441 8.301a445.912 445.912 0 0 0-3.114 8.64l3.776 1.317a442 442 0 0 1 3.086-8.562l-3.748-1.395Zm-3.11 8.625a270.968 270.968 0 0 0-2.619 7.657l3.806 1.232a267.409 267.409 0 0 1 2.58-7.543l-3.766-1.346Zm-2.613 7.64a479.224 479.224 0 0 0-3.917 12.252l3.828 1.162a474.35 474.35 0 0 1 3.883-12.148l-3.794-1.266ZM39.678 87.55a577.497 577.497 0 0 0-2.91 10.536l3.866 1.026c.863-3.253 1.826-6.74 2.89-10.464l-3.846-1.098ZM36.76 98.115a220.736 220.736 0 0 0-2.12 9.284l3.92.802a216.612 216.612 0 0 1 2.08-9.116l-3.88-.97Zm-2.12 9.284a241.057 241.057 0 0 0-1.613 8.672l3.946.658c.462-2.775.991-5.617 1.586-8.528l-3.918-.802Zm.655 7.023c-3.723-.556-7.002-2.882-9.786-7.461l-3.418 2.078c3.216 5.288 7.403 8.561 12.614 9.339l.59-3.956Zm-9.558-5.922c.524-2.034 1.15-4.239 1.876-6.616l-3.826-1.168a161.065 161.065 0 0 0-1.924 6.784l3.874 1Zm1.865-6.583c.8-2.465 1.7-5.231 2.7-8.297l-3.803-1.24c-1 3.067-1.901 5.835-2.701 8.303l3.804 1.234Zm2.691-8.273a816.957 816.957 0 0 1 3.691-10.573l-3.768-1.342a822.603 822.603 0 0 0-3.71 10.627l3.787 1.288Zm3.691-10.573c1.4-3.93 2.998-8.395 4.798-13.394l-3.764-1.354c-1.8 5.001-3.401 9.47-4.802 13.406l3.768 1.342Zm4.8-13.398a727.06 727.06 0 0 1 2.094-5.785l-3.756-1.377a737.264 737.264 0 0 0-2.105 5.816l3.766 1.346Zm2.1-5.804a338.064 338.064 0 0 0 2.113-6.136l-3.794-1.265a332.554 332.554 0 0 1-2.088 6.063l3.77 1.338Zm2.094-6.08a85.53 85.53 0 0 0 1.945-5.94l-3.846-1.098a81.592 81.592 0 0 1-1.855 5.66l3.756 1.377Zm1.926-5.877a97.99 97.99 0 0 0 1.531-5.207l-3.87-1.01a94.146 94.146 0 0 1-1.47 4.993l3.81 1.224Zm-.64-7.698c-2.792.332-5.45.631-7.973.897l.418 3.978c2.544-.268 5.22-.569 8.027-.903l-.472-3.972Zm-7.926.892c-2.427.197-4.571.294-6.438.294v4c2 0 4.255-.103 6.762-.306l-.324-3.988ZM66.973 89.3l1.933.514.002-.006-1.935-.508Zm5.9-18.6-1.877-.689-.003.007-.002.007 1.882.675Zm11.6-28.1-1.798-.875-.003.006 1.801.869Zm10.7-17.6.33-1.973-1.138-.19-.734.89L95.173 25Zm2.9 1-.851 1.81.02.009.02.009.811-1.828Zm3.5 1.8-1.014 1.724.039.023.04.02.935-1.767Zm3 1.9-1.219 1.585.028.022.029.02 1.162-1.627Zm1.8 1.6 1.526 1.293.974-1.149-.835-1.253-1.665 1.109Zm-13.7 19.8-1.747-.973 1.747.973Zm-10.8 24.3-1.883-.674v.003l1.883.671Zm-6.4 21.3 1.948.456v-.005l-1.948-.451Zm-2.1 18.6-.282 1.98 2.944.421-.721-2.886-1.94.485Zm-2.4-.7.895-1.789-.895 1.789Zm-1.3-1.2-1.856.743.009.022.01.023 1.837-.788Zm-1.1-1.5 1.487-1.338-.035-.039-.037-.037-1.415 1.414Zm-1.6-1.4 1.163-1.627-.026-.019-.027-.018-1.11 1.664Zm-1.5-3.1-1.948.45.002.008.002.009 1.944-.467Zm1.4-5.8c0-2.67.647-6.57 2.033-11.786l-3.865-1.028c-1.414 5.317-2.168 9.618-2.168 12.814h4Zm2.035-11.792c1.38-5.261 3.328-11.403 5.848-18.433l-3.765-1.35c-2.547 7.103-4.533 13.361-5.952 18.767l3.869 1.016Zm5.843-18.42c4.12-11.23 7.962-20.53 11.524-27.92l-3.603-1.737c-3.638 7.545-7.53 16.977-11.676 28.28l3.755 1.378Zm11.52-27.913c3.631-7.458 7.117-13.17 10.445-17.202l-3.085-2.546c-3.606 4.369-7.253 10.39-10.956 17.998l3.597 1.75Zm8.574-16.502c.549.091 1.33.344 2.377.837l1.703-3.62c-1.22-.574-2.372-.988-3.423-1.163l-.657 3.946Zm2.416.855c1.13.502 2.23 1.067 3.298 1.696l2.028-3.448a36.598 36.598 0 0 0-3.701-1.904l-1.625 3.656Zm3.377 1.74c1.05.556 1.952 1.13 2.716 1.717l2.439-3.17a23.106 23.106 0 0 0-3.284-2.083l-1.871 3.536Zm2.773 1.76c.431.307.754.563.984.767.245.218.318.32.314.314l3.329-2.218c-.491-.736-1.37-1.453-2.302-2.118l-2.325 3.255Zm1.437-1.321a125.162 125.162 0 0 0-13.922 20.12l3.495 1.946a121.178 121.178 0 0 1 13.478-19.48l-3.051-2.586Zm-13.922 20.12c-3.996 7.18-7.64 15.383-10.936 24.6l3.767 1.346c3.236-9.05 6.793-17.046 10.664-24l-3.495-1.946ZM79.989 74.73c-2.819 7.92-4.976 15.095-6.464 21.52l3.897.902c1.445-6.241 3.554-13.266 6.336-21.08l-3.769-1.342Zm-6.463 21.515c-1.485 6.346-2.253 11.744-2.253 16.156h4c0-3.988.7-9.057 2.148-15.244l-3.895-.912ZM71.273 112.4v2.1h4v-2.1h-4Zm0 2.1c0 .435.055.865.16 1.285l3.88-.97a1.292 1.292 0 0 1-.04-.315h-4Zm2.383-1.18c-.774-.111-1.357-.293-1.788-.509l-1.789 3.578c.902.451 1.92.735 3.012.891l.565-3.96Zm-1.788-.509a1.58 1.58 0 0 1-.363-.231c-.043-.039-.02-.032.007.032l-3.677 1.576c.457 1.065 1.347 1.752 2.244 2.201l1.789-3.578Zm-.338-.154c-.28-.702-.88-1.439-1.47-2.095l-2.973 2.676c.273.303.468.541.599.72.144.197.156.248.13.185l3.714-1.486Zm-1.542-2.171c-.645-.645-1.264-1.194-1.852-1.613l-2.325 3.254c.345.247.793.632 1.348 1.187l2.829-2.828Zm-1.905-1.65c.123.082.044.085-.134-.282-.165-.341-.35-.866-.53-1.621l-3.89.934c.218.911.484 1.737.82 2.429.321.666.792 1.386 1.515 1.868l2.219-3.328Zm-.66-1.886c-.36-1.56-.55-3.339-.55-5.35h-4c0 2.256.212 4.343.652 6.25l3.897-.9Zm55.683-38.75 1.997.105.016-.3-.072-.29-1.941.485Zm-.7 4-1.923-.55-.009.033-.008.032 1.94.485Zm-1.3 3.7 1.789.894.011-.02.01-.022-1.81-.852Zm-1.7 2.7 1.548 1.267-1.548-1.267Zm-1.7 1.1-.181 1.992.091.008h.09v-2Zm-1.3-1.5h-2v.142l.02.14 1.98-.282Zm.2-.9-1.838-.788-.033.077-.026.079 1.897.632Zm.6-1.5-1.872-.702 1.872.702Zm.5-1.6-1.872-.702-.04.106-.028.11 1.94.486Zm-.4-3.7-1.715 1.029.062.103.075.096 1.578-1.228Zm-7.8 4 1.844.775-1.844-.775Zm-2 15.9-1.789.894.583 1.166 1.301-.062-.095-1.998Zm3.7-.1v2h.059l.059-.004-.118-1.996Zm3.3-.1 1.789-.894-.553-1.106h-1.236v2Zm-.3 2.1.425 1.954.574-.124.415-.416-1.414-1.414Zm-3.7.9.45 1.949.05-.012.05-.014-.55-1.923Zm-2 .6.788 1.838-.788-1.838Zm-.9.7-1.789-.894-.063.127-.045.135 1.897.632Zm-.1 2.5h-2v.124l.016.124 1.984-.248Zm-4.5 15.5-1.485-1.34-.007.009-.007.008 1.499 1.323Zm-12.6 5.9-.142 1.995.17.012.169-.017-.197-1.99Zm-2.9-.8.846-1.812-.846 1.812Zm-2.9-1.8-1.292 1.527.028.023.029.023 1.235-1.573Zm-2.3-2.5 1.628-1.162-.02-.029-.023-.028-1.585 1.219Zm-1.4-2.7h-2v.28l.077.269 1.923-.549Zm1.6-7.2 1.81.852.005-.01.004-.01-1.819-.832Zm4.3-6.1 1.388 1.44-1.388-1.44Zm6.5-4.3.794 1.836.012-.005.011-.005L93.306 93Zm8.2-2 .136 1.995 1.864-.127V91h-2Zm-.5-4.9 1.958-.408-1.958.408Zm-1.1-4.6-1.954.425.011.05.014.051 1.93-.526Zm-1-4.4-1.95.443.002.01.003.01 1.945-.463Zm.6-9.6 1.842.78.005-.013.005-.012-1.852-.755Zm2.9-4.9 1.548 1.267.014-.017.013-.017-1.575-1.233Zm4.2-3.9-1.109-1.664 1.109 1.664Zm5-2.2.526-1.93-.485-.132-.49.113.449 1.949Zm2.9 1.8-1.28 1.536.046.039.048.035 1.186-1.61Zm6.9 6.9-1.61 1.186.016.021.016.02 1.578-1.227Zm-31.3 48.6-1.147 1.638.901.631 1.016-.423-.77-1.846Zm4.5-2.9-1.307-1.514-.018.015-.017.016 1.342 1.483Zm3.8-4.3 1.664 1.109-1.664-1.109Zm2.5-5.1-1.875-.695-.012.031-.01.032 1.897.632Zm1-5.3h2v-2.322l-2.296.344.296 1.978Zm-4.4 1.9 1.06 1.696.025-.016.025-.016-1.11-1.664Zm-4.5 3.7 1.415 1.414.016-.016.016-.017-1.447-1.381Zm-3.5 4.4-1.708-1.04 1.708 1.04Zm31.603-38.105c-.058 1.096-.261 2.28-.626 3.556l3.846 1.098c.436-1.524.699-3.007.774-4.444l-3.994-.21Zm-.643 3.62a18.154 18.154 0 0 1-1.169 3.333l3.619 1.704a22.132 22.132 0 0 0 1.431-4.067l-3.881-.97Zm-1.149 3.29c-.483.967-.973 1.735-1.459 2.329l3.096 2.532c.714-.873 1.358-1.905 1.941-3.072l-3.578-1.788Zm-1.459 2.329c-.217.265-.359.377-.413.412-.045.03.052-.046.261-.046v4c1.467 0 2.548-.978 3.248-1.834l-3.096-2.532Zm.029.374c.025.002.1.014.199.062.103.05.191.12.257.195.12.14.078.193.043-.048l-3.96.566c.099.693.34 1.463.894 2.102.595.686 1.387 1.032 2.205 1.107l.362-3.984Zm.519.492a.658.658 0 0 1-.005.096c0 .005.001-.007.008-.037a3.23 3.23 0 0 1 .095-.327l-3.795-1.264c-.143.43-.303.989-.303 1.532h4Zm.039-.112c.213-.498.424-1.027.634-1.586l-3.745-1.404c-.191.508-.38.979-.566 1.414l3.677 1.576Zm.634-1.586a16.8 16.8 0 0 0 .568-1.817l-3.881-.97c-.114.457-.258.918-.432 1.383l3.745 1.404Zm.5-1.6c.251-.67.427-1.384.427-2.102h-4c0 .082-.024.302-.172.698l3.745 1.404Zm.427-2.102c0-1.274-.324-2.503-1.121-3.528l-3.157 2.456c.136.175.278.48.278 1.072h4Zm-.985-3.329c-.735-1.225-1.929-1.971-3.415-1.971v4c.031 0 .036.003.022 0a.22.22 0 0 1-.061-.026.203.203 0 0 1-.024-.017l-.006-.004a.385.385 0 0 1 .054.076l3.43-2.058Zm-3.415-1.971c-1.788 0-3.413.572-4.793 1.703-1.345 1.103-2.369 2.662-3.151 4.522l3.688 1.55c.619-1.474 1.311-2.414 1.999-2.978.654-.536 1.379-.797 2.257-.797v-4Zm-7.944 6.225c-1.554 3.702-2.256 8.919-2.256 15.475h4c0-6.377.699-10.96 1.944-13.925l-3.688-1.55ZM105.406 89.2c0 .358.009.687.032.966.012.14.029.296.059.453.023.126.079.392.22.675l3.578-1.788a1.601 1.601 0 0 1 .133.375c.005.024.001.014-.004-.047a8.312 8.312 0 0 1-.018-.634h-4Zm2.195 3.198a76.917 76.917 0 0 1 3.605-.098v-4c-1.106 0-2.372.035-3.795.102l.19 3.996Zm3.723-.102a54.204 54.204 0 0 1 3.182-.096v-4a58.15 58.15 0 0 0-3.417.103l.235 3.993Zm1.393-1.202a1.688 1.688 0 0 1-.107-.284c-.012-.047-.014-.071-.013-.062a1.816 1.816 0 0 1 .009.252h4c0-.247-.01-.503-.04-.748a2.917 2.917 0 0 0-.271-.946l-3.578 1.788Zm-.111-.094c0 .161-.019.21-.011.187a.776.776 0 0 1 .197-.301l2.828 2.828c.812-.812.986-1.886.986-2.714h-4Zm1.175-.654c-1.553.337-2.833.648-3.824.931l1.099 3.846c.875-.25 2.062-.54 3.575-.869l-.85-3.908Zm-3.724.905c-.911.21-1.711.442-2.339.71l1.576 3.677c.306-.13.839-.3 1.662-.49l-.899-3.897Zm-2.339.71c-.621.267-1.451.745-1.901 1.645l3.578 1.788a.91.91 0 0 1-.236.31c-.021.016.01-.012.135-.066l-1.576-3.676Zm-2.009 1.907c-.171.512-.203 1.074-.203 1.532h4a2.975 2.975 0 0 1 .018-.339c-.001.003-.006.028-.02.071l-3.795-1.264Zm-.203 1.532V97h4v-1.6h-4Zm.016 1.848c.052.422.084 1 .084 1.752h4c0-.847-.035-1.603-.115-2.248l-3.969.496Zm.084 1.752c0 5.221-1.42 9.206-4.085 12.16l2.97 2.68c3.469-3.846 5.115-8.861 5.115-14.84h-4Zm-4.099 12.177c-2.602 2.948-6.296 4.739-11.297 5.233l.393 3.98c5.798-.572 10.505-2.715 13.903-6.567l-2.999-2.646Zm-10.958 5.228c-.65-.046-1.38-.236-2.197-.617l-1.692 3.624c1.183.552 2.387.896 3.604.983l.285-3.99Zm-2.197-.617a12.916 12.916 0 0 1-2.51-1.561l-2.471 3.146a16.913 16.913 0 0 0 3.29 2.039l1.691-3.624Zm-2.454-1.515a11.687 11.687 0 0 1-1.964-2.135l-3.255 2.324a15.679 15.679 0 0 0 2.635 2.865l2.584-3.054Zm-2.007-2.192c-.532-.692-.873-1.369-1.062-2.03l-3.846 1.098c.344 1.205.937 2.329 1.738 3.37l3.17-2.438Zm-.985-1.481c0-2.242.47-4.351 1.41-6.348l-3.62-1.704a18.71 18.71 0 0 0-1.79 8.052h4Zm1.42-6.368a17.814 17.814 0 0 1 3.868-5.491l-2.775-2.882a21.824 21.824 0 0 0-4.732 6.709l3.638 1.664Zm3.869-5.492c1.687-1.628 3.65-2.93 5.905-3.904l-1.588-3.672c-2.678 1.159-5.048 2.724-7.094 4.696l2.776 2.88Zm5.928-3.914c2.306-1.032 4.807-1.646 7.519-1.83l-.272-3.991c-3.154.215-6.12.934-8.88 2.17l1.633 3.65ZM103.506 91c0-1.801-.18-3.571-.542-5.308l-3.916.816A21.95 21.95 0 0 1 99.506 91h4Zm-.542-5.308a80.136 80.136 0 0 0-1.128-4.718l-3.86 1.052a75.802 75.802 0 0 1 1.072 4.482l3.916-.816Zm-1.103-4.617a237.327 237.327 0 0 0-1.009-4.438l-3.891.926c.33 1.386.66 2.84.99 4.362l3.91-.85Zm-1.004-4.418a17.358 17.358 0 0 1-.451-3.857h-4c0 1.56.186 3.142.55 4.743l3.901-.886Zm-.451-3.857c0-1.52.308-3.022.942-4.52l-3.684-1.56c-.832 1.97-1.258 4-1.258 6.08h4Zm.952-4.545c.66-1.62 1.526-3.08 2.596-4.388l-3.096-2.533a21.027 21.027 0 0 0-3.204 5.411l3.704 1.51Zm2.623-4.422a15.948 15.948 0 0 1 3.735-3.469l-2.219-3.328a19.944 19.944 0 0 0-4.666 4.331l3.15 2.466Zm3.735-3.469c1.415-.944 2.86-1.574 4.34-1.915l-.899-3.898c-1.987.459-3.876 1.295-5.66 2.485l2.219 3.328Zm3.364-1.934c.293.08.982.437 2.146 1.406l2.561-3.072c-1.236-1.03-2.481-1.874-3.655-2.194l-1.052 3.86Zm2.24 1.48c1.18.87 2.337 1.87 3.472 3.004l2.828-2.828a34.54 34.54 0 0 0-3.927-3.396l-2.373 3.22Zm3.472 3.004a30.472 30.472 0 0 1 3.004 3.472l3.22-2.372a34.467 34.467 0 0 0-3.396-3.928l-2.828 2.828Zm3.036 3.514c.882 1.135 1.241 1.868 1.338 2.257l3.881-.97c-.303-1.21-1.078-2.478-2.062-3.743l-3.157 2.456Zm-28.953 49.218c1.829-.762 3.52-1.857 5.073-3.263l-2.684-2.966c-1.246 1.127-2.555 1.965-3.927 2.537l1.538 3.692Zm5.038-3.232a23.173 23.173 0 0 0 4.157-4.705l-3.328-2.218a19.183 19.183 0 0 1-3.443 3.895l2.614 3.028Zm4.157-4.705a23.285 23.285 0 0 0 2.734-5.577l-3.795-1.264a19.315 19.315 0 0 1-2.267 4.623l3.328 2.218Zm2.712-5.514c.74-1.999 1.124-4 1.124-5.995h-4c0 1.472-.282 3.004-.875 4.605l3.751 1.39Zm-1.172-7.973c-1.721.258-3.466 1.049-5.213 2.214l2.219 3.328c1.452-.968 2.641-1.444 3.587-1.586l-.593-3.956Zm-5.164 2.182c-1.751 1.095-3.38 2.437-4.886 4.015l2.893 2.762c1.293-1.355 2.665-2.48 4.113-3.385l-2.12-3.392Zm-4.854 3.982c-1.501 1.501-2.77 3.092-3.794 4.774l3.417 2.08c.842-1.384 1.907-2.727 3.206-4.026l-2.829-2.828Zm-3.794 4.774c-1.023 1.68-1.692 3.384-1.692 5.04h4c0-.611.265-1.574 1.109-2.96l-3.417-2.08Zm-1.692 5.04c0 2.199 1.054 3.979 2.853 5.238l2.294-3.276c-.867-.607-1.147-1.227-1.147-1.962h-4Z" mask="url(#b)"/>
    </g>
  </g>
  <defs>
    <filter id="a" width="305.465" height="305.6" x="21.821" y="24.173" class="a" color-interpolation-filters="sRGB" filterUnits="userSpaceOnUse">
      <feFlood flood-opacity="0" result="BackgroundImageFix"/>
      <feColorMatrix in="SourceAlpha" result="hardAlpha" values="0 0 0 0 0 0 0 0 0 0 0 0 0 0 0 0 0 0 127 0"/>
      <feOffset dy="4"/>
      <feGaussianBlur stdDeviation="2"/>
      <feComposite in2="hardAlpha" operator="out"/>
      <feColorMatrix values="0 0 0 0 0 0 0 0 0 0 0 0 0 0 0 0 0 0 0.25 0"/>
      <feBlend in2="BackgroundImageFix" result="effect1_dropShadow_1_108"/>
      <feBlend in="SourceGraphic" in2="effect1_dropShadow_1_108" result="shape"/>
    </filter>
  </defs>
</svg>
